<svg width="26" height="27" viewBox="0 0 26 27" fill="none" xmlns="http://www.w3.org/2000/svg">
<path d="M23.012 10.529H15.856C15.7607 10.5227 15.671 10.482 15.6035 10.4145C15.536 10.347 15.4953 10.2573 15.489 10.162V3.19003C15.516 2.83715 15.4694 2.48251 15.3523 2.14853C15.2352 1.81456 15.0501 1.50852 14.8086 1.24977C14.5672 0.991016 14.2746 0.785184 13.9495 0.64529C13.6245 0.505395 13.2739 0.434482 12.92 0.437034C12.5566 0.429966 12.1956 0.49632 11.8585 0.632119C11.5214 0.767918 11.2152 0.970367 10.9583 1.22734C10.7013 1.4843 10.4989 1.7905 10.3631 2.12758C10.2273 2.46467 10.1609 2.82569 10.168 3.18903V10.345C10.1616 10.4403 10.1209 10.53 10.0534 10.5975C9.98594 10.665 9.89622 10.7057 9.80097 10.712H2.82897C2.47273 10.6689 2.11136 10.7041 1.77016 10.8153C1.42897 10.9264 1.1162 11.1108 0.853749 11.3555C0.591302 11.6003 0.385525 11.8994 0.250827 12.232C0.11613 12.5646 0.0557685 12.9227 0.0739701 13.281C0.0907423 14.0065 0.386354 14.6977 0.899399 15.2109C1.41244 15.7241 2.10348 16.02 2.82897 16.037H9.98497C10.0802 16.0434 10.1699 16.0841 10.2374 16.1516C10.3049 16.2191 10.3456 16.3088 10.352 16.404V23.56C10.3425 23.9 10.4024 24.2383 10.5281 24.5543C10.6539 24.8703 10.8427 25.1573 11.0832 25.3978C11.3237 25.6383 11.6107 25.8271 11.9267 25.9529C12.2427 26.0786 12.581 26.1386 12.921 26.129C13.6463 26.1115 14.337 25.8153 14.8496 25.3019C15.3622 24.7885 15.6575 24.0974 15.674 23.372V16.216C15.6803 16.1208 15.721 16.0311 15.7885 15.9636C15.856 15.8961 15.9457 15.8554 16.041 15.849H23.197C23.8739 15.835 24.5192 15.5598 24.998 15.081C25.4768 14.6023 25.7519 13.957 25.766 13.28C25.7959 12.911 25.7452 12.54 25.6175 12.1925C25.4898 11.845 25.288 11.5295 25.0263 11.2677C24.7645 11.006 24.449 10.8042 24.1015 10.6765C23.754 10.5488 23.383 10.4981 23.014 10.528L23.012 10.529Z" fill="white"/>
</svg>
